<svg xmlns="http://www.w3.org/2000/svg" width="111" height="1042" viewBox="0 0 111 1042">
  <defs>
    <style>
      .cls-1 {
        fill: #d71635;
        fill-rule: evenodd;
      }
    </style>
  </defs>
  <path id="HUSET" class="cls-1" d="M80.632,83.848a2.393,2.393,0,0,0,2.4-2.4V5.351h17.622V87.319a2.4,2.4,0,1,0,4.806,0V2.948a2.393,2.393,0,0,0-2.4-2.4H80.632a2.393,2.393,0,0,0-2.4,2.4V79.042H31.772V2.948a2.393,2.393,0,0,0-2.4-2.4H6.941a2.393,2.393,0,0,0-2.4,2.4V87.319a2.4,2.4,0,1,0,4.806,0V5.351H26.966V81.445a2.393,2.393,0,0,0,2.4,2.4H80.632Zm-2.4,21.894v79.3a2.393,2.393,0,0,0,2.4,2.4H103.06a2.393,2.393,0,0,0,2.4-2.4V98a2.4,2.4,0,0,0-4.806,0v84.639H83.035v-79.3a2.393,2.393,0,0,0-2.4-2.4H29.369a2.393,2.393,0,0,0-2.4,2.4v79.3H9.344V98a2.4,2.4,0,1,0-4.806,0V185.04a2.393,2.393,0,0,0,2.4,2.4H29.369a2.393,2.393,0,0,0,2.4-2.4v-79.3H78.229ZM62.21,379.951c12.282-3.2,20.826-13.617,20.826-28.836V218.951h17.622v38.714a2.4,2.4,0,1,0,4.806,0V216.548a2.393,2.393,0,0,0-2.4-2.4H80.633a2.393,2.393,0,0,0-2.4,2.4V351.115c0,15.219-9.612,22.695-17.889,24.03a2.558,2.558,0,0,0-2.4,2.4C57.938,379.684,59.54,380.485,62.21,379.951ZM4.539,351.382c0,34.977,25.9,51,50.2,51,25.365,0,50.73-17.621,50.73-51V268.345a2.4,2.4,0,1,0-4.806,0v83.037c0,25.365-19.491,45.924-45.924,45.924-31.239,0-45.39-24.03-45.39-45.924V268.345a2.4,2.4,0,1,0-4.806,0v83.037ZM31.772,216.548a2.393,2.393,0,0,0-2.4-2.4H6.941a2.393,2.393,0,0,0-2.4,2.4v41.117a2.4,2.4,0,1,0,4.806,0V218.951H26.966V351.115c0,15.219,8.544,25.632,20.826,28.836,2.67,0.534,4.272-.267,4.272-2.4a2.558,2.558,0,0,0-2.4-2.4c-8.277-1.335-17.889-8.811-17.889-24.03V216.548ZM52.863,529.2C7.741,502.5,5.872,491.29,5.872,475.27c0-23.5,20.826-44.054,47.259-44.054A46.442,46.442,0,0,1,99.855,475.27H81.432c-1.6-17.355-12.816-26.7-28.3-26.7-16.287,0-28.836,9.344-28.836,26.7,0,15.486,8.811,21.894,25.632,31.773a3.8,3.8,0,0,0,1.6.534,2.338,2.338,0,0,0,2.4-2.136,2.428,2.428,0,0,0-1.068-2.136C37.912,494.227,29.1,488.353,29.1,475.27c0-14.418,9.612-21.893,24.03-21.893,13.884,0,23.229,8.543,23.763,24.563a2.393,2.393,0,0,0,2.4,2.4h22.962a2.393,2.393,0,0,0,2.4-2.4c0-29.636-22.962-51.53-51.531-51.53C23.227,426.41.8,449.372,0.8,475.27c0,17.355,3.738,31.773,49.128,57.672a3.8,3.8,0,0,0,1.6.534,2.338,2.338,0,0,0,2.4-2.136A2.428,2.428,0,0,0,52.863,529.2ZM5.338,559.375a2.393,2.393,0,0,0-2.4,2.4c0,29.637,23.5,54.2,53.133,54.2,29.37,0,53.133-21.627,53.133-51.531,0-19.758-9.879-35.778-46.992-55.8a3.8,3.8,0,0,0-1.6-.534,2.338,2.338,0,0,0-2.4,2.136,2.428,2.428,0,0,0,1.068,2.136c37.647,20.826,44.856,35.778,44.856,52.065,0,25.365-18.957,46.458-48.06,46.458-26.433,0-46.725-21.093-48.327-46.725H26.7c1.6,17.355,13.617,28.836,29.37,28.836,15.486,0,28.836-10.68,28.836-28.3,0-14.685-8.277-20.559-22.695-30.171a3.8,3.8,0,0,0-1.6-.534,2.338,2.338,0,0,0-2.4,2.136,2.428,2.428,0,0,0,1.068,2.136C72.621,547.36,80.1,552.967,80.1,564.715c0,15.486-11.481,23.229-24.03,23.229-13.884,0-24.3-10.146-24.831-26.166a2.393,2.393,0,0,0-2.4-2.4H5.338Zm6.944,81.97a2.393,2.393,0,0,0-2.4,2.4v84.371a2.4,2.4,0,1,0,4.806,0V646.151H106v17.355H34.71a2.393,2.393,0,0,0-2.4,2.4v56.336a2.393,2.393,0,0,0,2.4,2.4H71.022v3.471a2.4,2.4,0,0,0,4.806,0v-6.141a2.393,2.393,0,0,0-2.4-2.4H37.113V668.312H108.4a2.393,2.393,0,0,0,2.4-2.4V643.748a2.393,2.393,0,0,0-2.4-2.4H12.282Zm96.119,186.9a2.393,2.393,0,0,0,2.4-2.4V803.68a2.393,2.393,0,0,0-2.4-2.4H37.113V746.542H73.425a2.393,2.393,0,0,0,2.4-2.4V738.8a2.4,2.4,0,0,0-4.806,0v2.937H34.71a2.393,2.393,0,0,0-2.4,2.4V803.68a2.393,2.393,0,0,0,2.4,2.4H106v17.355H14.685V738.8a2.4,2.4,0,1,0-4.806,0v87.042a2.393,2.393,0,0,0,2.4,2.4H108.4Zm-42.188,213.6a2.387,2.387,0,0,0,2.4-2.4v-157.8h34.443a2.393,2.393,0,0,0,2.4-2.4V857.348a2.393,2.393,0,0,0-2.4-2.4H60.339a2.4,2.4,0,0,0,0,4.806h40.317v17.088H66.213a2.393,2.393,0,0,0-2.4,2.4v157.8H60.339a2.4,2.4,0,1,0,0,4.8h5.874Zm-16.554,0a2.4,2.4,0,1,0,0-4.8H46.188v-157.8a2.393,2.393,0,0,0-2.4-2.4H9.342V859.751H49.659a2.4,2.4,0,1,0,0-4.806H6.939a2.393,2.393,0,0,0-2.4,2.4v21.894a2.393,2.393,0,0,0,2.4,2.4H41.382v157.8a2.387,2.387,0,0,0,2.4,2.4h5.874Z"/>
</svg>
