<svg id="Layer_1" data-name="Layer 1" xmlns="http://www.w3.org/2000/svg" viewBox="0 0 402 296"><defs><style>.cls-1{fill:#fff;stroke:#fff;stroke-miterlimit:10;}</style></defs><title>cafe_lille</title><rect width="402" height="296"/><path class="cls-1" d="M627.35,459.58a1.91,1.91,0,0,0,0-3.81,1.91,1.91,0,0,0,0,3.81Z" transform="translate(-478 -325)"/><path class="cls-1" d="M744.55,462.58c8.15,2.07,43.42,12,28.93,26-5.09,4.95-12.37,7.7-19,9.9a180.12,180.12,0,0,1-32,7.07,323.53,323.53,0,0,1-80.84.82,205.49,205.49,0,0,1-33.38-6.29c-7.61-2.18-15.66-4.86-22-9.7-4.51-3.41-7.52-8.36-3.68-13.55,2.62-3.54,6.82-5.85,10.71-7.7a102.24,102.24,0,0,1,20-6.61c2.38-.57,1.38-4.25-1-3.67-10.45,2.53-23,5.75-30.85,13.6-4.43,4.39-6,10.68-2.31,16,4.1,5.89,11.36,9.22,17.82,11.78,10.33,4.1,21.35,6.47,32.3,8.23a322.14,322.14,0,0,0,87.17,1.65,204.7,204.7,0,0,0,36-7c7.84-2.37,16.08-5.38,22.45-10.69,4.39-3.65,7.41-9.08,5-14.74-3.77-8.73-15.44-12.94-23.68-15.74-3.48-1.18-7-2.18-10.58-3.08-2.38-.61-3.39,3.07-1,3.67Z" transform="translate(-478 -325)"/><path class="cls-1" d="M730.16,459.56a1.91,1.91,0,0,0,0-3.81,1.91,1.91,0,0,0,0,3.81Z" transform="translate(-478 -325)"/><path class="cls-1" d="M615,418.87a104.68,104.68,0,0,0,5,25.64c5,15.59,13.56,30.66,27.48,39.83,16.51,10.88,39.75,12,57.41,3.24,15.28-7.59,25.05-22.44,30.7-38.09a112.89,112.89,0,0,0,5-19.15,73.45,73.45,0,0,0,1.37-11c0-.17,0-.34,0-.51a1.93,1.93,0,0,0-1.9-1.91H616.9a1.91,1.91,0,0,0,0,3.81H740.14l-1.91-1.9a99.43,99.43,0,0,1-4.29,23.49c-4.29,14.64-11.88,29.29-24.67,38.2-15.56,10.85-38,11.93-54.82,3.4-14.56-7.36-24-21.49-29.4-36.49a113.26,113.26,0,0,1-6.21-28.12c0-.16,0-.32,0-.48C618.67,416.43,614.86,416.42,615,418.87Z" transform="translate(-478 -325)"/><path class="cls-1" d="M640.76,356.39a18.46,18.46,0,0,1,6.45,8.17,17.36,17.36,0,0,1-2.61,18.32c-3.54,4.38-7.86,8.29-9.35,13.93a23.7,23.7,0,0,0,3,18.25c1.67,2.44,4.18,4.85,7.13,5.65,2.37.64,3.38-3,1-3.68a4.78,4.78,0,0,1-1.59-.76,11.2,11.2,0,0,1-3.61-3.67c-3.24-5.2-3.8-12.94-.76-18.31,2.78-4.92,7.55-8.39,10.15-13.44,3-5.75,2.48-12.73-.15-18.52a21.6,21.6,0,0,0-7.69-9.23c-2.09-1.3-4,2-1.93,3.29Z" transform="translate(-478 -325)"/><path class="cls-1" d="M676.53,356.39a18.46,18.46,0,0,1,6.45,8.17,17.4,17.4,0,0,1-2.61,18.32c-3.54,4.38-7.87,8.29-9.36,13.93a23.7,23.7,0,0,0,3,18.25c1.67,2.44,4.18,4.85,7.12,5.65,2.37.64,3.38-3,1-3.68a4.78,4.78,0,0,1-1.59-.76,11.3,11.3,0,0,1-3.61-3.67c-3.24-5.2-3.8-12.94-.75-18.31,2.78-4.92,7.54-8.39,10.14-13.44,3-5.75,2.48-12.73-.15-18.52a21.6,21.6,0,0,0-7.69-9.23c-2.08-1.3-4,2-1.92,3.29Z" transform="translate(-478 -325)"/><path class="cls-1" d="M712.29,356.39a18.46,18.46,0,0,1,6.45,8.17,17.38,17.38,0,0,1-2.61,18.32c-3.54,4.38-7.86,8.29-9.35,13.93a23.7,23.7,0,0,0,3,18.25c1.67,2.44,4.18,4.85,7.12,5.65,2.37.64,3.39-3,1-3.68a4.69,4.69,0,0,1-1.59-.76,11.2,11.2,0,0,1-3.61-3.67c-3.24-5.2-3.8-12.94-.76-18.31,2.78-4.92,7.55-8.39,10.15-13.44,3-5.75,2.48-12.73-.15-18.52a21.69,21.69,0,0,0-7.7-9.23c-2.08-1.3-4,2-1.92,3.29Z" transform="translate(-478 -325)"/><path class="cls-1" d="M597.12,595.76a29,29,0,0,1-10.29-10.58,29,29,0,0,1,0-28.67A28.94,28.94,0,0,1,597,546a27.69,27.69,0,0,1,31.91,2.48,1.73,1.73,0,0,1,.65,1.44,2.37,2.37,0,0,1-.58,1.55,2,2,0,0,1-1.58.68,3,3,0,0,1-1.8-.86q-5.48-4.89-14.46-4.89a22.18,22.18,0,0,0-11.84,3.38,25,25,0,0,0-8.74,9,23.81,23.81,0,0,0-3.24,12.05,24.44,24.44,0,0,0,3.21,12.27,24.11,24.11,0,0,0,8.7,8.95,23.45,23.45,0,0,0,26.8-1.94,1.84,1.84,0,0,1,1.08-.36,2.21,2.21,0,0,1,1.55.65,2.11,2.11,0,0,1,.68,1.58,2.24,2.24,0,0,1-.5,1.51q-6.2,6.19-17.7,6.19A26.63,26.63,0,0,1,597.12,595.76Z" transform="translate(-478 -325)"/><path class="cls-1" d="M683.53,596.8a2.17,2.17,0,0,1-4.18.79L674,584.86H644.75l-5.33,12.73a2,2,0,0,1-2,1.37,2,2,0,0,1-1.58-.65,2.17,2.17,0,0,1-.58-1.51,2,2,0,0,1,.22-.93l21.8-51.59a2.08,2.08,0,0,1,2.08-1.51,2.17,2.17,0,0,1,2.09,1.51l21.87,51.59A2,2,0,0,1,683.53,596.8ZM646.4,581h26l-13-31.08Z" transform="translate(-478 -325)"/><path class="cls-1" d="M687.88,598.35a2.1,2.1,0,0,1-.61-1.55V544.93a2.09,2.09,0,0,1,2.16-2.16H724a2.15,2.15,0,0,1,1.52.61,2,2,0,0,1,.64,1.55,2.07,2.07,0,0,1-.64,1.51,2.1,2.1,0,0,1-1.52.64H691.59v21.59H715.4a2.1,2.1,0,0,1,1.55.61,2.13,2.13,0,0,1,.61,1.55,2.25,2.25,0,0,1-.61,1.58,2.06,2.06,0,0,1-1.55.65H691.59V596.8a2.11,2.11,0,0,1-.62,1.55,2.06,2.06,0,0,1-1.54.61A2.09,2.09,0,0,1,687.88,598.35Z" transform="translate(-478 -325)"/><path class="cls-1" d="M737.24,598.35a2.11,2.11,0,0,1-.62-1.55V544.93a2.09,2.09,0,0,1,.62-1.55,2.06,2.06,0,0,1,1.54-.61h34.61a2.11,2.11,0,0,1,1.51.61,2,2,0,0,1,.65,1.55,2.08,2.08,0,0,1-.65,1.51,2.06,2.06,0,0,1-1.51.64H740.94v21.59h23.82a2.06,2.06,0,0,1,1.54.61,2.09,2.09,0,0,1,.61,1.55,2.2,2.2,0,0,1-.61,1.58,2,2,0,0,1-1.54.65H740.94v21.58h32.45a2.16,2.16,0,0,1,1.51,3.71,2.11,2.11,0,0,1-1.51.61H738.78A2.06,2.06,0,0,1,737.24,598.35Zm8.81-63.46a2,2,0,0,1-.65-1.55,2.21,2.21,0,0,1,1.15-1.94l8.71-5.83a2.43,2.43,0,0,1,1.08-.29,2.5,2.5,0,0,1,1.08.29l8.7,5.83a2.2,2.2,0,0,1,1.16,1.94,2,2,0,0,1-.65,1.55,2.21,2.21,0,0,1-1.59.61,2.38,2.38,0,0,1-1.36-.43l-7.34-4.89L749,535.07a2.37,2.37,0,0,1-3-.18Z" transform="translate(-478 -325)"/></svg>
