<svg id="Layer_1" data-name="Layer 1" xmlns="http://www.w3.org/2000/svg" viewBox="0 0 402 296"><defs><style>.cls-1{fill:#fff;stroke:#fff;stroke-miterlimit:10;}</style></defs><title>events_lille</title><rect width="402" height="296"/><path class="cls-1" d="M721.18,464.09H667.34c-7.69,0-15.39.11-23.08,0a5.16,5.16,0,0,1-4.41-1.89c-1-1.35-1-2.81-1-4.38v-37a12.55,12.55,0,0,1,.2-3.52c1.09-3.64,4.58-3.39,7.55-3.39h72.71c3.29,0,6.4.9,6.59,4.93.18,3.58,0,7.22,0,10.8,0,9.76.2,19.54,0,29.29,0,2.84-1.77,5.06-4.75,5.2-2.44.12-2.45,3.93,0,3.81a8.68,8.68,0,0,0,8.47-7.41,25.93,25.93,0,0,0,.09-3.3V423.87c0-4,.56-8.45-2.72-11.51-2.61-2.44-5.79-2.3-9-2.3H668.22c-8.06,0-16.14-.12-24.21,0a8.79,8.79,0,0,0-8.94,9c-.06,4.24,0,8.48,0,12.72v18.64c0,3.29-.35,6.79.1,10.06.7,5.2,5.2,7.41,9.93,7.41h76.08A1.91,1.91,0,0,0,721.18,464.09Z" transform="translate(-478 -325)"/><path class="cls-1" d="M637.3,426.84l-26.91-7.5a1.92,1.92,0,0,0-2.41,1.83v35.62a1.93,1.93,0,0,0,2.41,1.84l26.91-7.06c2.36-.62,1.36-4.3-1-3.67L609.38,455l2.41,1.84V421.17L609.38,423l26.9,7.5c2.37.66,3.38-3,1-3.67Z" transform="translate(-478 -325)"/><path class="cls-1" d="M662.08,371.43a11.7,11.7,0,1,1-11.69-11.69,11.83,11.83,0,0,1,11.69,11.69c0,2.45,3.86,2.46,3.81,0a15.5,15.5,0,1,0-12.73,15.24,15.74,15.74,0,0,0,12.73-15.24C665.94,369,662.13,369,662.08,371.43Z" transform="translate(-478 -325)"/><path class="cls-1" d="M679.73,371.43a29.34,29.34,0,1,1-23.63-28.79,29.67,29.67,0,0,1,23.63,28.79c0,2.45,3.83,2.46,3.81,0A33.15,33.15,0,1,0,656.79,404c15.48-3,26.58-16.94,26.75-32.53C683.56,369,679.75,369,679.73,371.43Z" transform="translate(-478 -325)"/><path class="cls-1" d="M730.23,371.43a11.7,11.7,0,1,1-11.69-11.69,11.82,11.82,0,0,1,11.69,11.69c.06,2.45,3.87,2.46,3.81,0a15.5,15.5,0,1,0-12.73,15.24A15.75,15.75,0,0,0,734,371.43C734.1,369,730.29,369,730.23,371.43Z" transform="translate(-478 -325)"/><path class="cls-1" d="M747.88,371.43a29.34,29.34,0,1,1-23.63-28.79,29.67,29.67,0,0,1,23.63,28.79c0,2.45,3.83,2.46,3.81,0A33.15,33.15,0,1,0,724.94,404c15.48-3,26.58-16.94,26.75-32.53C751.71,369,747.9,369,747.88,371.43Z" transform="translate(-478 -325)"/><path class="cls-1" d="M671.21,477.25,654.92,518.7l-2.31,5.89c-.9,2.28,2.78,3.27,3.67,1l16.29-41.44,2.31-5.89c.9-2.29-2.79-3.28-3.67-1Z" transform="translate(-478 -325)"/><path class="cls-1" d="M686.53,478.27l15.65,41.38,2.25,6c.86,2.28,4.55,1.29,3.68-1l-15.65-41.38-2.25-6c-.86-2.27-4.55-1.28-3.68,1Z" transform="translate(-478 -325)"/><path class="cls-1" d="M663.84,503.08h33.38a1.91,1.91,0,0,0,0-3.81H663.84a1.91,1.91,0,0,0,0,3.81Z" transform="translate(-478 -325)"/><path class="cls-1" d="M537.33,598.44a2.09,2.09,0,0,1-.61-1.55V545a2.09,2.09,0,0,1,2.16-2.16h34.6a2.15,2.15,0,0,1,1.52.61,2.05,2.05,0,0,1,.64,1.55,2.07,2.07,0,0,1-.64,1.51,2.11,2.11,0,0,1-1.52.65H541v21.58h23.81a2.09,2.09,0,0,1,2.16,2.16,2.25,2.25,0,0,1-.61,1.58,2.06,2.06,0,0,1-1.55.65H541v21.58h32.44a2.11,2.11,0,0,1,1.52.65,2.07,2.07,0,0,1,.64,1.51,2,2,0,0,1-.64,1.55,2.15,2.15,0,0,1-1.52.61h-34.6A2.09,2.09,0,0,1,537.33,598.44Z" transform="translate(-478 -325)"/><path class="cls-1" d="M627.44,543.44A2.17,2.17,0,0,1,628,545a3.56,3.56,0,0,1-.29,1.44l-21.51,51.29a2.15,2.15,0,0,1-3.13,1.05,2.28,2.28,0,0,1-.76-1.05l-21.58-51.29a4.51,4.51,0,0,1-.36-1.52,1.82,1.82,0,0,1,.65-1.47,2.38,2.38,0,0,1,1.58-.54,2,2,0,0,1,1.22.36,2.75,2.75,0,0,1,.87,1.15l19.64,47.06,19.42-46.77a3,3,0,0,1,.94-1.37,2.3,2.3,0,0,1,1.44-.43A1.69,1.69,0,0,1,627.44,543.44Z" transform="translate(-478 -325)"/><path class="cls-1" d="M637.19,598.44a2.13,2.13,0,0,1-.61-1.55V545a2.14,2.14,0,0,1,.61-1.55,2.1,2.1,0,0,1,1.55-.61h34.61a2.12,2.12,0,0,1,1.51.61,2.06,2.06,0,0,1,.65,1.55,2.22,2.22,0,0,1-2.16,2.16H640.9v21.58h23.81a2.13,2.13,0,0,1,1.55.61,2.1,2.1,0,0,1,.61,1.55,2.2,2.2,0,0,1-.61,1.58,2,2,0,0,1-1.55.65H640.9v21.58h32.45a2.22,2.22,0,0,1,2.16,2.16,2,2,0,0,1-.65,1.55,2.12,2.12,0,0,1-1.51.61H638.74A2.1,2.1,0,0,1,637.19,598.44Z" transform="translate(-478 -325)"/><path class="cls-1" d="M686.55,598.44a2.09,2.09,0,0,1-.61-1.55V545a2.19,2.19,0,0,1,3.81-1.44l36.55,47.56V545a2.14,2.14,0,0,1,.61-1.55,2.22,2.22,0,0,1,3.06,0,2.06,2.06,0,0,1,.65,1.55v51.87a2,2,0,0,1-.65,1.55,2.11,2.11,0,0,1-1.51.61,2,2,0,0,1-1.58-.65l-36.62-47.63v46.12a2.09,2.09,0,0,1-.62,1.55,2.06,2.06,0,0,1-1.54.61A2.09,2.09,0,0,1,686.55,598.44Z" transform="translate(-478 -325)"/><path class="cls-1" d="M783,543.4a1.94,1.94,0,0,1-1.4,3.34H763.35v50.15a2.16,2.16,0,1,1-4.31,0V546.74H740.83a1.94,1.94,0,1,1,0-3.88h40.73A1.9,1.9,0,0,1,783,543.4Z" transform="translate(-478 -325)"/><path class="cls-1" d="M796.16,597a17.72,17.72,0,0,1-7.41-7.59,2,2,0,0,1-.21-.86,1.87,1.87,0,0,1,.61-1.44,2.22,2.22,0,0,1,1.62-.58,2.16,2.16,0,0,1,2.08,1.37,13.32,13.32,0,0,0,5.8,5.58,20,20,0,0,0,9.24,2c4.12,0,7.38-1,9.75-3.09s3.56-5,3.56-8.78a10.49,10.49,0,0,0-3.49-8.09c-2.33-2.14-5.77-3.51-10.32-4.14q-8-1.15-12.56-5.21a12.78,12.78,0,0,1-4.57-9.9,13,13,0,0,1,2.13-7.37,13.86,13.86,0,0,1,6-5,21.19,21.19,0,0,1,8.88-1.76,19.07,19.07,0,0,1,9.65,2.52,17.26,17.26,0,0,1,6.47,6,2.31,2.31,0,0,1,.29,1.15,1.77,1.77,0,0,1-.33,1,2.24,2.24,0,0,1-.9.75,1.92,1.92,0,0,1-.86.15,2.28,2.28,0,0,1-2-1.08q-4.24-6.27-12.31-6.26-6,0-9.31,2.7a9.1,9.1,0,0,0-3.35,7.51,8.45,8.45,0,0,0,3.31,6.77q3.32,2.73,10.22,3.88,9.06,1.51,13.23,5.58a14.21,14.21,0,0,1,4.18,10.68,16.47,16.47,0,0,1-2.2,8.64,14.38,14.38,0,0,1-6.18,5.61,21,21,0,0,1-9.25,1.94A23.66,23.66,0,0,1,796.16,597Z" transform="translate(-478 -325)"/></svg>
