<?xml version="1.0" encoding="utf-8"?>
<!-- Generator: Adobe Illustrator 23.0.0, SVG Export Plug-In . SVG Version: 6.00 Build 0)  -->
<svg version="1.1" id="Layer_1" xmlns="http://www.w3.org/2000/svg" xmlns:xlink="http://www.w3.org/1999/xlink" x="0px" y="0px"
	 viewBox="0 0 402 296" style="enable-background:new 0 0 402 296;" xml:space="preserve">
<style type="text/css">
	.st0{fill:#FFFFFF;}
</style>
<title>frivilig_stor</title>
<rect width="402" height="296"/>
<path class="st0" d="M234.7,163.3h-3.6c-1,0-1.9,0.9-1.9,1.9v34.7c0.1,1.1,1,1.8,2,1.8c0.9-0.1,1.7-0.8,1.8-1.8v-34.7l-1.9,1.9h3.6
	c1.1-0.1,1.8-1,1.8-2C236.3,164.1,235.6,163.4,234.7,163.3z"/>
<path class="st0" d="M177.8,199.9c0-11.6,0-23.1,0-34.7c0-1-0.9-1.9-1.9-1.9h-9.2c-1.1,0.1-1.8,1-1.8,2c0.1,0.9,0.8,1.7,1.8,1.8h9.2
	l-1.9-1.9c0,11.6,0,23.1,0,34.7c0.1,1.1,1,1.8,2,1.8C177,201.6,177.7,200.8,177.8,199.9z"/>
<path class="st0" d="M239.8,55.7c0.2-5.8,5-10.3,10.8-10.1c5.5,0.2,10,4.6,10.1,10.1c0.1,2.5,3.9,2.5,3.8,0
	c-0.2-7.9-6.8-14.1-14.6-13.9c-7.6,0.2-13.7,6.3-13.9,13.9C235.9,58.1,239.7,58.1,239.8,55.7L239.8,55.7z"/>
<path class="st0" d="M166.6,163.3c-10.9-0.1-20.6-7-24.3-17.3c-1.6-4.6-1.4-9.4-1.4-14.2V78.1c-0.1-1.1-1-1.8-2-1.8
	c-0.9,0.1-1.7,0.8-1.8,1.8v54c0,5.4-0.1,10.6,1.9,15.8c4.4,11.5,15.4,19,27.7,19.2C169.1,167.1,169.1,163.3,166.6,163.3L166.6,163.3
	z"/>
<path class="st0" d="M260.7,55.7v39.1c0,14.4,0.1,28.7,0,43.1s-11.9,25.2-26,25.4c-2.5,0-2.5,3.8,0,3.8c13.7-0.1,26.5-9.4,29.3-23.2
	c1-5.1,0.6-10.6,0.6-15.7V55.7c-0.1-1.1-1-1.8-2-1.8C261.6,54,260.8,54.7,260.7,55.7L260.7,55.7z"/>
<path class="st0" d="M215.1,33.8c-0.2-5.8,4.4-10.6,10.1-10.8c5.8-0.2,10.6,4.4,10.8,10.1c0,0.2,0,0.4,0,0.6c0.1,2.4,3.9,2.5,3.8,0
	c0.2-7.9-6-14.4-13.9-14.6s-14.4,6-14.6,13.9c0,0.3,0,0.5,0,0.8C211.2,36.3,215,36.3,215.1,33.8L215.1,33.8z"/>
<path class="st0" d="M239.8,80.5V33.8c-0.1-1.1-1-1.8-2-1.8c-0.9,0.1-1.7,0.8-1.8,1.8v46.6c0.1,1.1,1,1.8,2,1.8
	C239,82.1,239.7,81.4,239.8,80.5z"/>
<path class="st0" d="M190.3,25.6c0-5.8,4.7-10.5,10.5-10.5s10.5,4.7,10.5,10.5c0.1,2.5,3.9,2.5,3.8,0c0-7.9-6.4-14.3-14.3-14.3
	s-14.3,6.4-14.3,14.3C186.5,28.1,190.3,28.1,190.3,25.6z"/>
<path class="st0" d="M211.3,25.6v45c0.1,1.1,1,1.8,2,1.8c0.9-0.1,1.7-0.8,1.8-1.8v-45c-0.1-1.1-1-1.8-2-1.8
	C212.1,23.9,211.3,24.7,211.3,25.6z"/>
<path class="st0" d="M165.6,33.4c-0.2-5.8,4.4-10.6,10.1-10.8c5.8-0.2,10.6,4.4,10.8,10.1c0,0.2,0,0.4,0,0.6c0.1,2.4,3.9,2.5,3.8,0
	c0.2-7.9-6-14.4-13.9-14.6s-14.4,6-14.6,13.9c0,0.3,0,0.5,0,0.8C161.8,35.9,165.6,35.9,165.6,33.4L165.6,33.4z"/>
<path class="st0" d="M186.5,25.6v45c0.1,1.1,1,1.8,2,1.8c0.9-0.1,1.7-0.8,1.8-1.8v-45c-0.1-1.1-1-1.8-2-1.8
	C187.4,23.9,186.6,24.7,186.5,25.6z"/>
<path class="st0" d="M161.8,33.4v66.8c0.1,1,0.9,1.8,1.9,1.9c16.7,1.7,31,15.2,32.5,32.1c0.2,2.4,4,2.4,3.8,0
	c-1.7-19.1-17.4-33.9-36.3-35.9l1.9,1.9V33.4c-0.1-1.1-1-1.8-2-1.8C162.6,31.7,161.9,32.5,161.8,33.4z"/>
<path class="st0" d="M140.9,78.1c0.2-5.8,5-10.3,10.8-10.1c5.5,0.2,10,4.6,10.1,10.1c0.1,2.5,3.9,2.5,3.8,0
	c-0.2-7.9-6.8-14.1-14.6-13.9c-7.6,0.2-13.7,6.3-13.9,13.9C137,80.6,140.8,80.6,140.9,78.1L140.9,78.1z"/>
<path class="st0" d="M38.2,273.5c-0.4-0.4-0.6-1-0.6-1.5v-51.9c0-1.2,0.9-2.1,2-2.2c0,0,0.1,0,0.1,0h34.6c0.6,0,1.1,0.2,1.5,0.6
	c0.4,0.4,0.7,1,0.7,1.5c0,1.2-1,2.1-2.2,2.2H41.9v21.6h23.8c0.6,0,1.1,0.2,1.5,0.6c0.4,0.4,0.6,1,0.6,1.5c0,0.6-0.2,1.2-0.6,1.6
	c-0.4,0.4-1,0.7-1.5,0.7H41.9V272c0,0.6-0.2,1.1-0.6,1.5C40.4,274.3,39.1,274.3,38.2,273.5L38.2,273.5z"/>
<path class="st0" d="M121.7,272.4c0,0.5-0.2,0.9-0.6,1.2c-0.5,0.3-1.1,0.5-1.8,0.4c-0.4,0-0.8-0.1-1.2-0.3c-0.3-0.2-0.6-0.5-0.8-0.9
	l-13.2-21.2H91.3v20.1c0,0.6-0.2,1.1-0.6,1.5c-0.4,0.4-1,0.7-1.6,0.6c-1.2,0-2.1-0.9-2.2-2c0,0,0-0.1,0-0.1v-51.8
	c0-0.6,0.2-1.2,0.6-1.6c0.4-0.4,1-0.6,1.5-0.6h13.7c3.2-0.1,6.4,0.7,9.3,2.2c2.7,1.4,4.9,3.4,6.4,6c1.6,2.7,2.4,5.7,2.3,8.8
	c0.2,7.5-4.8,14.1-12.1,16l12.4,19.9C121.5,271.3,121.7,271.8,121.7,272.4z M102.9,247.4c2.4,0,4.9-0.5,7-1.6c2-1,3.7-2.5,4.9-4.5
	c1.2-2,1.8-4.2,1.8-6.5c0-2.3-0.6-4.6-1.8-6.6c-1.2-1.9-2.8-3.5-4.9-4.5c-2.2-1.1-4.6-1.7-7-1.6H91.3v25.3L102.9,247.4z"/>
<path class="st0" d="M131.3,273.5c-0.4-0.4-0.6-1-0.6-1.5v-51.9c0-1.2,1-2.2,2.2-2.2c1.2,0,2.2,1,2.2,2.2V272c0,1.2-1,2.2-2.2,2.2
	C132.3,274.1,131.7,273.9,131.3,273.5L131.3,273.5z"/>
<path class="st0" d="M190.8,218.5c0.3,0.4,0.5,1,0.5,1.5c0,0.5-0.1,1-0.3,1.4l-21.5,51.3c-0.3,0.8-1.1,1.4-1.9,1.4
	c-0.4,0-0.8-0.1-1.2-0.3c-0.3-0.3-0.6-0.6-0.8-1l-21.6-51.3c-0.2-0.5-0.3-1-0.4-1.5c0-0.6,0.2-1.1,0.7-1.5c0.4-0.4,1-0.6,1.6-0.5
	c0.4,0,0.9,0.1,1.2,0.4c0.4,0.3,0.7,0.7,0.9,1.2l19.6,47.1l19.4-46.8c0.2-0.5,0.5-1,0.9-1.4c0.4-0.3,0.9-0.4,1.4-0.4
	C190,217.9,190.5,218.1,190.8,218.5z"/>
<path class="st0" d="M200.5,273.5c-0.4-0.4-0.6-1-0.6-1.5v-51.9c0-0.6,0.2-1.1,0.6-1.5c0.4-0.4,1-0.6,1.5-0.6c1.2,0,2.1,0.9,2.2,2
	c0,0,0,0.1,0,0.1V272c0,1.2-0.9,2.1-2,2.2c0,0-0.1,0-0.1,0C201.5,274.1,200.9,273.9,200.5,273.5z"/>
<path class="st0" d="M257.6,273.5c-0.4-0.4-0.7-1-0.7-1.5v-51.9c0-0.6,0.2-1.1,0.7-1.5c0.4-0.4,0.9-0.6,1.5-0.6c1.2,0,2.1,0.9,2.2,2
	c0,0,0,0.1,0,0.1v50.2h29.6c0.6,0,1.1,0.2,1.5,0.5c0.8,0.7,0.8,1.9,0.1,2.7c0,0-0.1,0.1-0.1,0.1c-0.4,0.4-1,0.6-1.5,0.5h-31.7
	C258.6,274.1,258,273.9,257.6,273.5z"/>
<path class="st0" d="M302.6,273.5c-0.4-0.4-0.6-1-0.6-1.5v-51.9c0-1.2,1-2.2,2.2-2.2c0.6,0,1.1,0.2,1.5,0.6c0.4,0.4,0.6,1,0.6,1.5
	V272c0,0.6-0.2,1.1-0.6,1.5C304.8,274.3,303.5,274.3,302.6,273.5L302.6,273.5z"/>
<path class="st0" d="M363.6,247.3c0.4,0.4,0.6,0.9,0.6,1.5v18.2c0,0.3,0,0.6-0.1,0.8c-0.1,0.3-0.2,0.5-0.4,0.7
	c-4.1,4.1-10,6.2-17.7,6.2c-4.9,0-9.8-1.3-14-3.9c-4.3-2.6-7.8-6.2-10.3-10.6c-5.1-8.9-5.1-19.8,0-28.7c2.4-4.3,5.9-8,10.2-10.5
	c4.3-2.6,9.1-4,14.1-3.9c6.5-0.1,12.8,2.2,17.8,6.4c0.4,0.3,0.7,0.9,0.7,1.4c0,0.6-0.2,1.1-0.6,1.5c-0.4,0.5-1,0.7-1.6,0.7
	c-0.7-0.1-1.3-0.4-1.8-0.9c-3.6-3.3-8.5-4.9-14.5-4.9c-4.2,0-8.3,1.2-11.8,3.4c-3.6,2.2-6.6,5.3-8.7,9c-2.1,3.6-3.2,7.8-3.2,12
	c0,8.7,4.5,16.7,11.9,21.2c8.1,4.8,18.2,4.3,25.8-1.2v-15.3h-12.1c-0.6,0-1.2-0.2-1.6-0.6c-0.4-0.4-0.6-0.9-0.6-1.4
	c0-0.5,0.2-1,0.6-1.3c0.4-0.4,1-0.6,1.5-0.5H362C362.6,246.7,363.1,246.9,363.6,247.3z"/>
<path class="st0" d="M212.8,273.5c-0.4-0.4-0.7-1-0.7-1.5v-51.9c0-0.6,0.2-1.1,0.7-1.5c0.4-0.4,0.9-0.6,1.5-0.6c1.2,0,2.1,0.9,2.2,2
	c0,0,0,0.1,0,0.1v50.2h29.6c0.6,0,1.1,0.2,1.5,0.5c0.8,0.7,0.8,1.9,0.1,2.7c0,0-0.1,0.1-0.1,0.1c-0.4,0.4-1,0.6-1.5,0.5h-31.7
	C213.8,274.1,213.3,273.9,212.8,273.5z"/>
</svg>
