<svg id="Layer_1" data-name="Layer 1" xmlns="http://www.w3.org/2000/svg" viewBox="0 0 402 296"><defs><style>.cls-1{fill:#fff;}</style></defs><title>info_stor</title><rect width="402" height="296"/><path class="cls-1" d="M749.86,432.17c-.13,31.27-20,60-49.52,70.7A76,76,0,0,1,616.68,480c-20.14-24.27-22.69-59.75-6.39-86.72a75.15,75.15,0,0,1,139.57,38.85c0,2.45,3.82,2.46,3.81,0A79.84,79.84,0,0,0,702,358c-31.05-11.49-67.13-1.7-88.16,23.83s-24,62.67-6.79,91.1a79.81,79.81,0,0,0,83.24,36.69c31.94-6.33,57.47-32.91,62.46-65.09a84.07,84.07,0,0,0,1-12.37C753.68,429.72,749.87,429.71,749.86,432.17Z" transform="translate(-478 -325)"/><path class="cls-1" d="M672.77,406.41v76.16a1.91,1.91,0,0,0,3.81,0V406.41a1.91,1.91,0,0,0-3.81,0Z" transform="translate(-478 -325)"/><path class="cls-1" d="M674.35,383.88a.33.33,0,0,1,.65,0,.33.33,0,0,1-.65,0,2,2,0,0,0,1.9,1.9,1.92,1.92,0,0,0,1.91-1.9,3.49,3.49,0,1,0-3.48,3.48,3.56,3.56,0,0,0,3.48-3.48,1.91,1.91,0,1,0-3.81,0Z" transform="translate(-478 -325)"/><path class="cls-1" d="M588,598.36a2.12,2.12,0,0,1-.61-1.54V544.94a2.16,2.16,0,1,1,4.32,0v51.88a2.09,2.09,0,0,1-2.16,2.15A2.09,2.09,0,0,1,588,598.36Z" transform="translate(-478 -325)"/><path class="cls-1" d="M606.67,598.36a2.08,2.08,0,0,1-.61-1.54V544.94a2.19,2.19,0,0,1,3.81-1.44l36.55,47.56V544.94a2.1,2.1,0,0,1,.61-1.55,2.13,2.13,0,0,1,1.55-.61,2.17,2.17,0,0,1,1.51.61,2.06,2.06,0,0,1,.65,1.55v51.88a2,2,0,0,1-.65,1.54,2.12,2.12,0,0,1-1.51.61,2,2,0,0,1-1.59-.64L610.38,550.7v46.12a2.09,2.09,0,0,1-.62,1.54,2.26,2.26,0,0,1-3.09,0Z" transform="translate(-478 -325)"/><path class="cls-1" d="M661.35,598.36a2.08,2.08,0,0,1-.61-1.54V544.94a2.1,2.1,0,0,1,.61-1.55,2.13,2.13,0,0,1,1.55-.61h34.6a2.15,2.15,0,0,1,1.51.61,2.13,2.13,0,0,1,0,3.06,2.07,2.07,0,0,1-1.51.65H665.05v21.58h23.82a2.1,2.1,0,0,1,2.16,2.16,2.25,2.25,0,0,1-.61,1.58,2,2,0,0,1-1.55.65H665.05v23.75a2.19,2.19,0,0,1-3.7,1.54Z" transform="translate(-478 -325)"/><path class="cls-1" d="M721.35,595.92A27.7,27.7,0,0,1,711,585.56a30.4,30.4,0,0,1,0-29.36,27.62,27.62,0,0,1,10.36-10.36,30.4,30.4,0,0,1,29.36,0,27.55,27.55,0,0,1,10.36,10.36,30.4,30.4,0,0,1,0,29.36,27.62,27.62,0,0,1-10.36,10.36,30.47,30.47,0,0,1-29.36,0Zm27.16-3.75a23.18,23.18,0,0,0,8.82-8.81,26,26,0,0,0,0-25,23.25,23.25,0,0,0-8.82-8.81,25.94,25.94,0,0,0-25,0,23.32,23.32,0,0,0-8.82,8.81,26,26,0,0,0,0,25,23.25,23.25,0,0,0,8.82,8.81,25.86,25.86,0,0,0,25,0Z" transform="translate(-478 -325)"/></svg>
