<svg id="Layer_1" data-name="Layer 1" xmlns="http://www.w3.org/2000/svg" viewBox="0 0 402 296"><defs><style>.cls-1{fill:#fff;stroke:#fff;stroke-miterlimit:10;}</style></defs><title>om_lille</title><rect width="402" height="296"/><path class="cls-1" d="M617.08,431.51v70.82c0,4.51,1,8.77,4.88,11.34,2.43,1.6,5,1.59,7.71,1.59h76.71c6.19,0,12.4.15,18.6,0,5.8-.13,10.31-4.7,10.48-11,.07-2.31,0-4.63,0-6.94V431.51a1.78,1.78,0,1,0-3.55,0v69.72c0,3.68,0,7.48-3.64,9.45-1.86,1-4,.77-6.09.77H646.84c-6.36,0-12.72.06-19.07,0-4.06,0-7.08-3-7.13-7.41,0-2.73,0-5.46,0-8.19V431.51a1.78,1.78,0,1,0-3.56,0Z" transform="translate(-478 -325)"/><path class="cls-1" d="M659.51,513.36V445.25a32.89,32.89,0,0,1,0-4.44c.25-1.89,2.27-1.4,3.62-1.4h22c2.13,0,4.57-.36,6.68,0,1.55.26,1.26,1.7,1.26,3v29.87c0,13.44-.25,26.91,0,40.34,0,.26,0,.52,0,.78a1.78,1.78,0,1,0,3.56,0v-70a18.83,18.83,0,0,0-.12-3.9c-.8-3.61-3.89-3.85-6.69-3.85H679.36c-6.21,0-12.52-.35-18.73,0-5.71.32-4.68,7.14-4.68,11.38v22.68c0,14.28-.22,28.59,0,42.87v.83a1.78,1.78,0,1,0,3.56,0Z" transform="translate(-478 -325)"/><path class="cls-1" d="M595.19,440.72l27.87-29.85,44.37-47.5,10.1-10.82H675l27.77,29.85L747,429.9l10.07,10.82c1.61,1.74,4.13-1,2.51-2.69L731.8,408.18l-44.2-47.51-10.07-10.81a1.71,1.71,0,0,0-2.51,0L647.14,379.7l-44.37,47.51L592.67,438c-1.62,1.73.89,4.43,2.52,2.69Z" transform="translate(-478 -325)"/><path class="cls-1" d="M709.45,385V364.62l-1.78,1.9h17.19l-1.78-1.9v38.8a1.78,1.78,0,1,0,3.56,0v-38.8a1.88,1.88,0,0,0-1.78-1.91H707.67a1.87,1.87,0,0,0-1.77,1.91V385a1.78,1.78,0,1,0,3.55,0Z" transform="translate(-478 -325)"/><path class="cls-1" d="M498.58,595.78a26.78,26.78,0,0,1-9.67-10.37,32.27,32.27,0,0,1,0-29.35,26.75,26.75,0,0,1,9.67-10.36,26.72,26.72,0,0,1,27.4,0,26.68,26.68,0,0,1,9.67,10.36,32.27,32.27,0,0,1,0,29.35A26.7,26.7,0,0,1,526,595.78a26.78,26.78,0,0,1-27.4,0ZM523.93,592a22.41,22.41,0,0,0,8.23-8.81,27.56,27.56,0,0,0,0-25,22.48,22.48,0,0,0-8.23-8.81,22.81,22.81,0,0,0-23.3,0,22.55,22.55,0,0,0-8.23,8.81,27.56,27.56,0,0,0,0,25,22.48,22.48,0,0,0,8.23,8.81,22.75,22.75,0,0,0,23.3,0Z" transform="translate(-478 -325)"/><path class="cls-1" d="M601.83,543.25a2.27,2.27,0,0,1,.54,1.55v51.88a2.24,2.24,0,0,1-.54,1.54,1.78,1.78,0,0,1-1.41.61,2,2,0,0,1-1.48-.61,2.11,2.11,0,0,1-.6-1.54V552.57l-20.41,44.54a1.76,1.76,0,0,1-1.75,1,2.06,2.06,0,0,1-1.88-1.36L554,553.22v43.46a2.17,2.17,0,0,1-.57,1.54,2,2,0,0,1-2.89,0,2.17,2.17,0,0,1-.57-1.54V544.8a2.2,2.2,0,0,1,.57-1.55,1.92,1.92,0,0,1,1.45-.61,1.79,1.79,0,0,1,1.81,1.08l22.56,47.77,22.3-47.77a2,2,0,0,1,1.81-1.08A1.82,1.82,0,0,1,601.83,543.25Z" transform="translate(-478 -325)"/><path class="cls-1" d="M636.05,598.22a2.18,2.18,0,0,1-.58-1.54V544.8a2.2,2.2,0,0,1,.58-1.55,2,2,0,0,1,2.88,0,2.2,2.2,0,0,1,.57,1.55v23.74h33.92V544.8a2.2,2.2,0,0,1,.57-1.55,1.91,1.91,0,0,1,1.44-.61,1.94,1.94,0,0,1,1.41.61,2.1,2.1,0,0,1,.61,1.55v51.88a2.08,2.08,0,0,1-.61,1.54,1.9,1.9,0,0,1-1.41.61,1.87,1.87,0,0,1-1.44-.61,2.17,2.17,0,0,1-.57-1.54V572.43H639.5v24.25a2.17,2.17,0,0,1-.57,1.54,2,2,0,0,1-2.88,0Z" transform="translate(-478 -325)"/><path class="cls-1" d="M700.58,597.5a17.86,17.86,0,0,1-7.15-6.9,19.88,19.88,0,0,1-2.55-10.11V544.8a2.14,2.14,0,0,1,.57-1.58,2.13,2.13,0,0,1,2.92,0,2.21,2.21,0,0,1,.54,1.58v35.69a15,15,0,0,0,2.05,7.84,14.14,14.14,0,0,0,5.71,5.39,18.9,18.9,0,0,0,16.72,0,14.48,14.48,0,0,0,5.74-5.39,15,15,0,0,0,2.08-7.84V544.8a2.14,2.14,0,0,1,.57-1.58,1.93,1.93,0,0,1,1.45-.58,1.9,1.9,0,0,1,1.47.58,2.21,2.21,0,0,1,.54,1.58v35.69a19.61,19.61,0,0,1-2.59,10.11,18.06,18.06,0,0,1-7.18,6.9,23.24,23.24,0,0,1-20.89,0Z" transform="translate(-478 -325)"/><path class="cls-1" d="M749.44,596.78a17.22,17.22,0,0,1-6.92-7.59,2.07,2.07,0,0,1-.2-.86,2,2,0,0,1,.57-1.44,2.14,2.14,0,0,1,3.46.79,12.84,12.84,0,0,0,5.41,5.58,17.6,17.6,0,0,0,8.62,2q5.77,0,9.1-3.1t3.33-8.78a10.87,10.87,0,0,0-3.26-8.09q-3.25-3.19-9.64-4.14-7.44-1.14-11.71-5.21a13.14,13.14,0,0,1-4.27-9.9,13.71,13.71,0,0,1,2-7.37,13.3,13.3,0,0,1,5.58-5,18.65,18.65,0,0,1,8.29-1.76,16.84,16.84,0,0,1,9,2.52,16.62,16.62,0,0,1,6,6,2.41,2.41,0,0,1,.27,1.15,1.89,1.89,0,0,1-.3,1,2.19,2.19,0,0,1-.84.75,1.71,1.71,0,0,1-.81.15,2.11,2.11,0,0,1-1.88-1.08,12.78,12.78,0,0,0-11.48-6.26c-3.72,0-6.61.9-8.7,2.7a9.41,9.41,0,0,0-3.12,7.52,8.67,8.67,0,0,0,3.09,6.76q3.09,2.73,9.54,3.88,8.46,1.51,12.35,5.58a14.78,14.78,0,0,1,3.9,10.68,17.52,17.52,0,0,1-2.05,8.64,13.77,13.77,0,0,1-5.78,5.61,18.45,18.45,0,0,1-8.63,1.94A20.88,20.88,0,0,1,749.44,596.78Z" transform="translate(-478 -325)"/><path class="cls-1" d="M788.49,598.22a2.17,2.17,0,0,1-.57-1.54V544.8a2.2,2.2,0,0,1,.57-1.55,1.91,1.91,0,0,1,1.44-.61h32.3a1.94,1.94,0,0,1,1.41.61,2.22,2.22,0,0,1,0,3.06,1.87,1.87,0,0,1-1.41.65H792v21.58h22.22a1.92,1.92,0,0,1,1.45.61,2.2,2.2,0,0,1,.57,1.55,2.29,2.29,0,0,1-.57,1.58,1.82,1.82,0,0,1-1.45.65H792v21.59h30.28a1.86,1.86,0,0,1,1.41.64,2.15,2.15,0,0,1,.61,1.52,2.08,2.08,0,0,1-.61,1.54,1.9,1.9,0,0,1-1.41.61h-32.3A1.87,1.87,0,0,1,788.49,598.22Z" transform="translate(-478 -325)"/><path class="cls-1" d="M869.41,543.18a2.22,2.22,0,0,1,0,2.81,1.71,1.71,0,0,1-1.31.54h-17v50.15a2.17,2.17,0,0,1-.57,1.54,2,2,0,0,1-2.89,0,2.17,2.17,0,0,1-.57-1.54V546.53h-17a1.71,1.71,0,0,1-1.31-.54,2.22,2.22,0,0,1,0-2.81,1.71,1.71,0,0,1,1.31-.54h38A1.71,1.71,0,0,1,869.41,543.18Z" transform="translate(-478 -325)"/></svg>
