<svg id="Layer_1" data-name="Layer 1" xmlns="http://www.w3.org/2000/svg" viewBox="0 0 402 296"><defs><style>.cls-1{fill:#fff;}</style></defs><title>scene_stor</title><rect width="402" height="296"/><path class="cls-1" d="M670.11,429.34l-6.7-9.5-.68,2.61,53.42-38,7.58-5.39a2,2,0,0,0,.88-2.15l-.72-4-.49,1.86L740,360.6l9.81-8.36c2.55-2.17,5.72-4.36,8.54-.83,4.65,5.83,8.73,12.3,13,18.38,1.22,1.72,2.68,3.42,2.07,5.7a5.42,5.42,0,0,1-2.93,3.24l-9.26,5.4-22.16,12.95H741l-3.56-2a1.89,1.89,0,0,0-1.92,0L682,432.93l-7.6,5.37L677,439l-6.89-9.65c-1.41-2-4.71-.08-3.29,1.92l6.89,9.65a1.92,1.92,0,0,0,2.6.68l53.54-37.86,7.59-5.37h-1.92c1.55.88,3.69,2.77,5.53,2a28.07,28.07,0,0,0,2.9-1.69l13.81-8.07L771,382.82c.75-.43,1.52-.84,2.24-1.31a8.4,8.4,0,0,0,3.5-10.23c-.77-1.93-2.3-3.65-3.49-5.33l-4.18-5.89c-2.43-3.43-4.84-6.89-7.31-10.3-3.37-4.65-8.81-5.18-13.16-1.53-3.28,2.74-6.51,5.55-9.77,8.32l-14.38,12.24a40,40,0,0,0-3.64,3.1c-1.34,1.5-.24,4.22.08,6l.88-2.15-53.42,38-7.58,5.39a2,2,0,0,0-.69,2.61l6.7,9.49C668.23,433.25,671.53,431.34,670.11,429.34Z" transform="translate(-478 -325)"/><path class="cls-1" d="M662.67,419.53c-12-2.39-23.53,7.25-22.15,19.71,1.25,11.34,13.09,19.08,24,15.29a18.41,18.41,0,0,0,12.16-14.79c.34-2.4-3.33-3.43-3.68-1a14.71,14.71,0,0,1-11.34,12.65,14.41,14.41,0,1,1,0-28.18c2.39.48,3.42-3.19,1-3.67Z" transform="translate(-478 -325)"/><path class="cls-1" d="M609.58,442.68l21.86,30.81,5.83,8.22c1.41,2,4.71.08,3.29-1.93l-22-31-5.69-8c-1.41-2-4.71-.08-3.29,1.92Z" transform="translate(-478 -325)"/><path class="cls-1" d="M679.65,393.63c-9.55-8.79-23.74-12-34.47-3.37-7.59,6.09-12.56,17.53-23.59,17.66s-22.29-.08-32.18,5.94c-11.27,6.86-18.34,20.67-19.5,33.6-1.32,14.68,6.57,28.26,14.72,39.81,7.67,10.86,16.23,22.49,28.67,28.18,10.89,5,24.63,4.94,35.69.43,10.8-4.42,17.55-13.61,21.83-24.13,1.89-4.65,2.78-10.4,6.08-14.3s8.53-5.8,13.24-7.69c5-2,10.05-4.2,13.72-8.27a25.34,25.34,0,0,0,5.82-20.17,34.27,34.27,0,0,0-3.08-9.94c-1-2.22-4.33-.29-3.29,1.92,3.26,7,4,14.95.3,21.94-2.48,4.72-6.81,7.53-11.56,9.63-4.45,2-9.21,3.38-13.32,6a20.85,20.85,0,0,0-8.59,11.48c-3.09,9.33-6.81,18.86-14.64,25.29-8.9,7.32-22.54,9.24-33.6,6.72-11.5-2.63-20.17-11-27.31-20A155.31,155.31,0,0,1,581,474.55c-3.26-5.75-6-11.91-7-18.48-1.92-12.26,3.26-26.42,12.18-34.95,8.05-7.68,19.07-9.43,29.77-9.45,4.88,0,9.5.3,14-1.91,4.22-2.07,7.43-5.67,10.46-9.15s6.09-7.16,10.18-9.46c5.71-3.2,12.89-2.85,18.71-.11a30.8,30.8,0,0,1,7.65,5.28c1.81,1.66,4.51-1,2.7-2.69Z" transform="translate(-478 -325)"/><path class="cls-1" d="M561.78,596.89a17.72,17.72,0,0,1-7.41-7.59,1.94,1.94,0,0,1-.21-.86,1.87,1.87,0,0,1,.61-1.44,2.29,2.29,0,0,1,1.62-.58,2.16,2.16,0,0,1,2.08,1.37,13.32,13.32,0,0,0,5.8,5.58,20,20,0,0,0,9.24,2q6.19,0,9.75-3.1t3.56-8.78a10.49,10.49,0,0,0-3.49-8.09q-3.48-3.2-10.32-4.14-8-1.14-12.56-5.21a12.78,12.78,0,0,1-4.57-9.9,13,13,0,0,1,2.13-7.37,13.93,13.93,0,0,1,6-5,21.19,21.19,0,0,1,8.88-1.76,19,19,0,0,1,9.65,2.52,17.26,17.26,0,0,1,6.47,6,2.31,2.31,0,0,1,.29,1.15,1.83,1.83,0,0,1-.32,1,2.34,2.34,0,0,1-.91.75,1.92,1.92,0,0,1-.86.15,2.28,2.28,0,0,1-2-1.08q-4.24-6.25-12.31-6.26-6,0-9.31,2.7a9.12,9.12,0,0,0-3.35,7.52,8.43,8.43,0,0,0,3.31,6.76q3.32,2.73,10.22,3.88,9.06,1.51,13.24,5.58a14.24,14.24,0,0,1,4.17,10.68,16.56,16.56,0,0,1-2.19,8.64,14.4,14.4,0,0,1-6.19,5.61,21,21,0,0,1-9.25,1.94A23.66,23.66,0,0,1,561.78,596.89Z" transform="translate(-478 -325)"/><path class="cls-1" d="M614.23,595.74A29,29,0,0,1,604,585.17a29,29,0,0,1,0-28.68A28.94,28.94,0,0,1,614.13,546,26.68,26.68,0,0,1,628.26,542,27,27,0,0,1,646,548.44a1.69,1.69,0,0,1,.64,1.43,2.34,2.34,0,0,1-.57,1.55,2,2,0,0,1-1.58.68,2.9,2.9,0,0,1-1.8-.86q-5.47-4.89-14.47-4.89a22.23,22.23,0,0,0-11.83,3.38,25.06,25.06,0,0,0-8.74,9,23.84,23.84,0,0,0-3.24,12A24.66,24.66,0,0,0,616.36,592a23.43,23.43,0,0,0,26.8-1.95,1.8,1.8,0,0,1,1.08-.36,2.19,2.19,0,0,1,1.54.65,2.08,2.08,0,0,1,.69,1.58,2.17,2.17,0,0,1-.51,1.51q-6.18,6.19-17.7,6.19A26.57,26.57,0,0,1,614.23,595.74Z" transform="translate(-478 -325)"/><path class="cls-1" d="M658.81,598.33a2.09,2.09,0,0,1-.62-1.54V544.91a2.1,2.1,0,0,1,2.16-2.16H695a2.17,2.17,0,0,1,1.51.61,2.13,2.13,0,0,1,0,3.06,2.08,2.08,0,0,1-1.51.65H662.51v21.58h23.82a2.09,2.09,0,0,1,2.15,2.16,2.2,2.2,0,0,1-.61,1.58,2,2,0,0,1-1.54.65H662.51v21.59H695a2.07,2.07,0,0,1,1.51.64,2.11,2.11,0,0,1,.65,1.52,2,2,0,0,1-.65,1.54,2.12,2.12,0,0,1-1.51.61H660.35A2.06,2.06,0,0,1,658.81,598.33Z" transform="translate(-478 -325)"/><path class="cls-1" d="M708.16,598.33a2.12,2.12,0,0,1-.61-1.54V544.91a2.09,2.09,0,0,1,2.16-2.16,2.12,2.12,0,0,1,1.65.72L747.92,591V544.91a2.09,2.09,0,0,1,2.15-2.16,2.15,2.15,0,0,1,1.51.61,2,2,0,0,1,.65,1.55v51.88a2,2,0,0,1-.65,1.54,2.11,2.11,0,0,1-1.51.61,2,2,0,0,1-1.58-.64l-36.62-47.63v46.12a2.19,2.19,0,0,1-3.71,1.54Z" transform="translate(-478 -325)"/><path class="cls-1" d="M767.23,598.33a2.08,2.08,0,0,1-.61-1.54V544.91a2.1,2.1,0,0,1,.61-1.55,2.13,2.13,0,0,1,1.55-.61h34.61a2.19,2.19,0,0,1,1.51.61,2.15,2.15,0,0,1,0,3.06,2.1,2.1,0,0,1-1.51.65H770.94v21.58h23.81a2.13,2.13,0,0,1,1.55.61,2.1,2.1,0,0,1,.61,1.55,2.2,2.2,0,0,1-.61,1.58,2,2,0,0,1-1.55.65H770.94v21.59h32.45a2.19,2.19,0,0,1,2.15,2.16,2,2,0,0,1-.64,1.54,2.14,2.14,0,0,1-1.51.61H768.78A2.09,2.09,0,0,1,767.23,598.33Z" transform="translate(-478 -325)"/></svg>
